<svg width="40" height="42" viewBox="0 0 40 42" fill="none" xmlns="http://www.w3.org/2000/svg">
<path d="M29.8868 0H9.96225C4.46025 0 0 4.46025 0 9.96225V29.8868C0 35.3888 4.46025 39.849 9.96225 39.849H29.8868C35.3888 39.849 39.849 35.3888 39.849 29.8868V9.96225C39.849 4.46025 35.3888 0 29.8868 0Z" fill="white"/>
<path d="M39.849 0H0V39.849H39.849V0Z" fill="white"/>
<path fill-rule="evenodd" clip-rule="evenodd" d="M4.98111 19.9245C14.4794 19.9245 19.9245 14.4794 19.9245 4.98113C19.9245 14.4794 25.3696 19.9245 34.8679 19.9245C25.3696 19.9245 19.9245 25.3696 19.9245 34.8679C19.9245 25.3696 14.4794 19.9245 4.98111 19.9245Z" fill="black"/>
</svg>

