<svg preserveAspectRatio="none" width="100%" height="100%" overflow="visible" style="display: block;" viewBox="0 0 16 20" fill="none" xmlns="http://www.w3.org/2000/svg">
<path id="Vector" d="M0 0.815013V19.1095C0.00260239 19.2555 0.0420995 19.3982 0.114509 19.5232C0.186918 19.6482 0.289678 19.7511 0.41243 19.8215C0.535182 19.8919 0.673585 19.9274 0.813683 19.9243C0.953782 19.9212 1.09062 19.8797 1.21041 19.8039L15.564 10.6567C15.6786 10.5844 15.7734 10.4825 15.8392 10.3608C15.905 10.2392 15.9396 10.1019 15.9396 9.96225C15.9396 9.82261 15.905 9.68532 15.8392 9.56367C15.7734 9.44202 15.6786 9.34011 15.564 9.2678L1.21041 0.120561C1.09062 0.0447922 0.953782 0.00327149 0.813683 0.000185533C0.673585 -0.00290042 0.535182 0.0325577 0.41243 0.102984C0.289678 0.173411 0.186918 0.276317 0.114509 0.401325C0.0420995 0.526333 0.00260239 0.669025 0 0.815013Z" fill="var(--fill-0, #D9D9D9)"/>
</svg>
