<?xml version="1.0" encoding="UTF-8"?>
<svg version="1.1" xmlns="http://www.w3.org/2000/svg" width="499" height="499">
<path d="M0 0 C0.96672134 0.00424484 1.93344269 0.00848969 2.92945862 0.01286316 C5.99623274 0.02956353 9.06233305 0.06719976 12.12890625 0.10546875 C14.21678734 0.12052675 16.3046788 0.1342132 18.39257812 0.14648438 C23.4924444 0.17943876 28.59181135 0.23116124 33.69140625 0.29296875 C35.30883872 5.37305512 34.06000798 9.89911585 33.0390625 14.9765625 C32.86007919 15.90968765 32.68109589 16.84281281 32.49668884 17.80421448 C31.92462898 20.78143021 31.34022861 23.75603162 30.75390625 26.73046875 C30.17249623 29.70155823 29.59389473 32.67310677 29.02183533 35.64601135 C28.66591922 37.49359791 28.30448291 39.34013206 27.93678284 41.18540955 C27.07748553 45.62563751 26.47873129 49.7439585 26.69140625 54.29296875 C30.6937325 52.12027736 33.52310916 49.54250423 36.69140625 46.29296875 C40.31209591 43.29296875 40.31209591 43.29296875 42.69140625 43.29296875 C42.69140625 42.63296875 42.69140625 41.97296875 42.69140625 41.29296875 C44.71869296 39.56962307 46.75648247 37.95449816 48.87890625 36.35546875 C54.61504506 31.96027429 60.17246111 27.41569177 65.60229492 22.64672852 C69.47890982 19.29296875 69.47890982 19.29296875 71.69140625 19.29296875 C71.94019531 18.69613281 72.18898438 18.09929687 72.4453125 17.484375 C73.87459257 14.9708135 75.27098668 13.87706063 77.62890625 12.23046875 C80.53230236 10.1928933 80.53230236 10.1928933 83.10546875 7.7734375 C85.22932783 5.79082028 87.47788351 4.84060568 90.12890625 3.66796875 C91.07636719 3.24257812 92.02382813 2.8171875 93 2.37890625 C97.43034136 0.59133746 101.04497881 0.16970365 105.83691406 0.17944336 C107.07789856 0.17951889 108.31888306 0.17959442 109.59747314 0.17967224 C110.94649292 0.18477844 112.29551229 0.18999443 113.64453125 0.1953125 C115.02886911 0.19717851 116.41320763 0.19860155 117.79754639 0.19960022 C121.43401933 0.20341102 125.07045207 0.213229 128.70690918 0.2243042 C132.42048601 0.23454925 136.13406935 0.23910446 139.84765625 0.24414062 C147.12892454 0.25485259 154.41015975 0.27191171 161.69140625 0.29296875 C162.02140625 1.94296875 162.35140625 3.59296875 162.69140625 5.29296875 C161.40512914 6.46557486 160.11220842 7.63089705 158.81640625 8.79296875 C158.09710938 9.44265625 157.3778125 10.09234375 156.63671875 10.76171875 C154.69140625 12.29296875 154.69140625 12.29296875 152.69140625 12.29296875 C152.48515625 12.84984375 152.27890625 13.40671875 152.06640625 13.98046875 C150.11457593 17.26309246 147.74909631 18.99970121 144.69140625 21.29296875 C144.03140625 21.29296875 143.37140625 21.29296875 142.69140625 21.29296875 C142.50578125 21.84984375 142.32015625 22.40671875 142.12890625 22.98046875 C140.37740789 25.79809654 138.39688352 27.0739306 135.640625 28.8515625 C133.06059642 30.75943935 130.94111686 33.00643252 128.69140625 35.29296875 C126.80542084 37.05357747 124.90907426 38.80313575 123.00390625 40.54296875 C122.48135254 41.02040527 121.95879883 41.4978418 121.42041016 41.98974609 C117.33640798 45.71656861 113.23426178 49.4230169 109.1171875 53.11328125 C107.48386695 54.58090261 105.85635082 56.05500662 104.234375 57.53515625 C100.06181093 61.3331752 95.84270201 65.01162164 91.44140625 68.54296875 C85.68626042 73.19606537 80.32007077 78.21390926 74.92578125 83.2734375 C71.26094886 86.70842347 67.50114829 90.02017022 63.69140625 93.29296875 C63.04300781 93.87046875 62.39460938 94.44796875 61.7265625 95.04296875 C61.09621094 95.59984375 60.46585937 96.15671875 59.81640625 96.73046875 C59.26210937 97.22417969 58.7078125 97.71789062 58.13671875 98.2265625 C56.69140625 99.29296875 56.69140625 99.29296875 54.69140625 99.29296875 C54.48515625 99.84984375 54.27890625 100.40671875 54.06640625 100.98046875 C52.11457593 104.26309246 49.74909631 105.99970121 46.69140625 108.29296875 C46.03140625 108.29296875 45.37140625 108.29296875 44.69140625 108.29296875 C44.46453125 108.87046875 44.23765625 109.44796875 44.00390625 110.04296875 C42.34292403 112.89036684 40.37616064 114.41364068 37.69140625 116.29296875 C37.03140625 116.29296875 36.37140625 116.29296875 35.69140625 116.29296875 C35.3046875 117.18242187 35.3046875 117.18242187 34.91015625 118.08984375 C33.5937073 120.4695784 32.26559843 121.80275667 30.19140625 123.54296875 C29.58296875 124.06375 28.97453125 124.58453125 28.34765625 125.12109375 C26.69140625 126.29296875 26.69140625 126.29296875 24.69140625 126.29296875 C24.36946289 127.10169434 24.36946289 127.10169434 24.04101562 127.92675781 C22.20619574 131.14366707 19.70555007 133.5643613 17.09765625 136.15234375 C16.55032837 136.70158508 16.00300049 137.25082642 15.43908691 137.81671143 C14.28492845 138.97222734 13.12825458 140.1252356 11.96923828 141.27587891 C10.19066679 143.04370375 8.42305862 144.82199005 6.65625 146.6015625 C5.53319317 147.72329846 4.40951649 148.84441426 3.28515625 149.96484375 C2.75490845 150.49914001 2.22466064 151.03343628 1.67834473 151.58392334 C-2.07865521 155.29296875 -2.07865521 155.29296875 -4.30859375 155.29296875 C-4.51484375 155.82921875 -4.72109375 156.36546875 -4.93359375 156.91796875 C-6.84109801 160.21274884 -9.35678759 162.88660503 -12.30859375 165.29296875 C-12.96859375 165.29296875 -13.62859375 165.29296875 -14.30859375 165.29296875 C-14.55536865 165.86281494 -14.80214355 166.43266113 -15.05639648 167.01977539 C-17.57936641 171.59988321 -21.7026741 175.05647823 -25.37109375 178.73046875 C-26.19287109 179.57673828 -27.01464844 180.42300781 -27.86132812 181.29492188 C-34.21865293 187.68225766 -40.80445411 193.64050686 -50.18359375 194.29296875 C-51.08851563 194.37546875 -51.9934375 194.45796875 -52.92578125 194.54296875 C-55.30859375 194.29296875 -55.30859375 194.29296875 -57.00805664 193.26342773 C-59.08418111 190.11786727 -58.10440344 187.04323079 -57.5 183.515625 C-57.37898422 182.73027878 -57.25796844 181.94493256 -57.13328552 181.13578796 C-56.72884165 178.53948442 -56.30021308 175.94779871 -55.87109375 173.35546875 C-55.58265818 171.53894706 -55.29556524 169.72221171 -55.00976562 167.90527344 C-54.27293261 163.25250589 -53.51489136 158.60350443 -52.74786377 153.95562744 C-52.33565481 151.45700083 -51.92668657 148.95787102 -51.51904297 146.45849609 C-50.18784964 138.30832512 -48.82764265 130.16331808 -47.447052 122.02137756 C-46.11721667 114.17662521 -44.81112968 106.32795635 -43.50561523 98.47912598 C-43.02089398 95.56572039 -42.53539747 92.65244449 -42.04963684 89.73921204 C-41.81963301 88.35919916 -41.58988424 86.97914374 -41.36039734 85.5990448 C-40.7513789 81.9382084 -40.137399 78.27828482 -39.5168457 74.61938477 C-38.1584459 66.58675335 -36.88770704 58.56469889 -35.87109375 50.48046875 C-34.86704725 42.9554821 -33.75755584 35.45621433 -32.43359375 27.98046875 C-32.29638916 27.13959717 -32.15918457 26.29872559 -32.01782227 25.43237305 C-30.38920805 16.62869586 -26.91682262 9.84111577 -19.56640625 4.58203125 C-12.75820565 0.69499631 -7.77129985 -0.12990116 0 0 Z " fill="#F2650E" transform="translate(196.30859375,144.70703125)"/>
<path d="M0 0 C3.26770856 2.14800423 5.5071092 4.9713234 7.984375 7.96875 C8.49097656 8.56300781 8.99757813 9.15726563 9.51953125 9.76953125 C13.234375 14.20531503 13.234375 14.20531503 13.234375 16.46875 C13.83636719 16.72398437 14.43835938 16.97921875 15.05859375 17.2421875 C17.48337344 18.60911896 18.47516157 19.81997437 20.046875 22.09375 C22.76838124 25.90803495 25.74269142 29.35873884 28.9140625 32.8046875 C30.234375 34.46875 30.234375 34.46875 30.234375 36.46875 C31.719375 36.96375 31.719375 36.96375 33.234375 37.46875 C35.06640625 39.5078125 35.06640625 39.5078125 37.046875 42.09375 C39.53258655 45.30082332 42.03985165 48.43501112 44.734375 51.46875 C47.234375 54.46875 47.234375 54.46875 47.234375 56.46875 C47.894375 56.46875 48.554375 56.46875 49.234375 56.46875 C50.66987226 58.06209239 52.03264827 59.72126082 53.359375 61.40625 C57.49828939 66.57989299 61.80349441 71.54554934 66.234375 76.46875 C70.76821017 81.54185191 75.09107003 86.73865807 79.30859375 92.078125 C81.4517667 94.73861555 83.6947274 97.28740107 86.0078125 99.80078125 C87.53869725 101.8825895 88.3083228 104.0659604 89.234375 106.46875 C79.3239122 106.67859175 69.41398982 106.83784993 59.50174618 106.93505955 C54.89741196 106.98175032 50.29461295 107.04492606 45.69116211 107.14770508 C41.23653477 107.2465228 36.78337012 107.29951817 32.32773018 107.32264519 C30.64012214 107.3390944 28.95258137 107.37121104 27.26560783 107.42032051 C14.21787276 107.78455225 4.43812277 105.08373158 -5.31796455 96.02781868 C-8.34590968 93.00707996 -11.07272395 89.78767602 -13.765625 86.46875 C-14.88540043 85.19331072 -16.01001773 83.92209737 -17.140625 82.65625 C-19.26905871 80.21304792 -21.37687573 77.75304478 -23.4765625 75.28515625 C-29.31911211 68.42526624 -35.24658535 61.68188629 -41.390625 55.08984375 C-43.62569705 52.62317706 -45.71699875 50.09118129 -47.765625 47.46875 C-46.25531174 43.93058947 -44.18969144 41.63508853 -41.484375 38.921875 C-40.22173828 37.65537109 -40.22173828 37.65537109 -38.93359375 36.36328125 C-38.05316406 35.49058594 -37.17273438 34.61789062 -36.265625 33.71875 C-35.38519531 32.83058594 -34.50476563 31.94242187 -33.59765625 31.02734375 C-32.75589844 30.18816406 -31.91414062 29.34898437 -31.046875 28.484375 C-30.27408203 27.71383789 -29.50128906 26.94330078 -28.70507812 26.14941406 C-26.765625 24.46875 -26.765625 24.46875 -24.765625 24.46875 C-24.50136719 23.86546875 -24.23710937 23.2621875 -23.96484375 22.640625 C-22.70807426 20.3645213 -21.61122338 19.30056567 -19.578125 17.71875 C-14.35827305 13.42132511 -10.21805214 8.24671808 -5.953125 3.03125 C-2.67769781 -0.80567899 -2.67769781 -0.80567899 0 0 Z " fill="#000000" transform="translate(272.765625,231.53125)"/>
<path d="M0 0 C0.96672134 0.00424484 1.93344269 0.00848969 2.92945862 0.01286316 C5.99623274 0.02956353 9.06233305 0.06719976 12.12890625 0.10546875 C14.21678734 0.12052675 16.3046788 0.1342132 18.39257812 0.14648438 C23.4924444 0.17943876 28.59181135 0.23116124 33.69140625 0.29296875 C35.30883872 5.37305512 34.06000798 9.89911585 33.0390625 14.9765625 C32.86007919 15.90968765 32.68109589 16.84281281 32.49668884 17.80421448 C31.92462898 20.78143021 31.34022861 23.75603162 30.75390625 26.73046875 C30.17249623 29.70155823 29.59389473 32.67310677 29.02183533 35.64601135 C28.66591922 37.49359791 28.30448291 39.34013206 27.93678284 41.18540955 C27.07748553 45.62563751 26.47873129 49.7439585 26.69140625 54.29296875 C28.34140625 53.63296875 29.99140625 52.97296875 31.69140625 52.29296875 C27.7750113 56.3675258 23.59378177 59.9417298 19.19140625 63.48046875 C18.49450684 64.0427417 17.79760742 64.60501465 17.07958984 65.18432617 C12.51563479 68.8547014 7.93479468 72.50378555 3.31640625 76.10546875 C2.27742188 76.91628906 1.2384375 77.72710937 0.16796875 78.5625 C-2.30859375 80.29296875 -2.30859375 80.29296875 -4.30859375 80.29296875 C-4.30859375 80.95296875 -4.30859375 81.61296875 -4.30859375 82.29296875 C-7.77013221 85.29296875 -7.77013221 85.29296875 -10.30859375 85.29296875 C-10.57671875 85.89109375 -10.84484375 86.48921875 -11.12109375 87.10546875 C-13.4401895 91.37748725 -15.80592634 92.49301285 -20.28125 94.28125 C-23.58199533 95.92844276 -26.30055788 98.2681884 -29.15625 100.58203125 C-30.99298594 102.04208632 -32.83305873 103.34529533 -34.80859375 104.60546875 C-37.39267074 106.05183863 -37.39267074 106.05183863 -38.30859375 108.29296875 C-38.96859375 108.29296875 -39.62859375 108.29296875 -40.30859375 108.29296875 C-40.28539062 108.91945313 -40.2621875 109.5459375 -40.23828125 110.19140625 C-40.21121094 111.41730469 -40.21121094 111.41730469 -40.18359375 112.66796875 C-40.16039062 113.48007812 -40.1371875 114.2921875 -40.11328125 115.12890625 C-40.30859375 117.29296875 -40.30859375 117.29296875 -42.30859375 119.29296875 C-43.92630046 124.62188497 -44.64757227 129.74257961 -45.0625 135.2890625 C-45.30859375 137.29296875 -45.30859375 137.29296875 -46.30859375 138.29296875 C-46.34048001 141.30394289 -46.24008125 144.30291927 -46.1484375 147.3125 C-46.31098809 150.33752676 -46.90029959 151.68975833 -48.30859375 154.29296875 C-48.72066783 156.61580233 -48.72066783 156.61580233 -48.87109375 158.98046875 C-49.20894962 163.19332462 -49.20894962 163.19332462 -50.30859375 164.29296875 C-50.51878565 166.05916462 -50.67702812 167.83168213 -50.80859375 169.60546875 C-51.20225586 174.87069944 -51.20225586 174.87069944 -51.84765625 177.43359375 C-52.45814014 179.53035573 -52.45814014 179.53035573 -52.18359375 182.73046875 C-52.3182474 186.56809791 -53.08416446 188.23437848 -55.30859375 191.29296875 C-48.16968784 191.14618751 -43.10671094 190.19517205 -37.0859375 186.25390625 C-36.49941406 185.93679688 -35.91289062 185.6196875 -35.30859375 185.29296875 C-34.64859375 185.62296875 -33.98859375 185.95296875 -33.30859375 186.29296875 C-40.14898476 191.2254956 -46.50153099 195.29377134 -55.30859375 194.29296875 C-57.03100586 193.25952148 -57.03100586 193.25952148 -58.30859375 191.29296875 C-58.21765807 188.57165592 -57.95654635 186.18026167 -57.5 183.515625 C-57.37898422 182.73027878 -57.25796844 181.94493256 -57.13328552 181.13578796 C-56.72884165 178.53948442 -56.30021308 175.94779871 -55.87109375 173.35546875 C-55.58265818 171.53894706 -55.29556524 169.72221171 -55.00976562 167.90527344 C-54.27293261 163.25250589 -53.51489136 158.60350443 -52.74786377 153.95562744 C-52.33565481 151.45700083 -51.92668657 148.95787102 -51.51904297 146.45849609 C-50.18784964 138.30832512 -48.82764265 130.16331808 -47.447052 122.02137756 C-46.11721667 114.17662521 -44.81112968 106.32795635 -43.50561523 98.47912598 C-43.02089398 95.56572039 -42.53539747 92.65244449 -42.04963684 89.73921204 C-41.81963301 88.35919916 -41.58988424 86.97914374 -41.36039734 85.5990448 C-40.7513789 81.9382084 -40.137399 78.27828482 -39.5168457 74.61938477 C-38.1584459 66.58675335 -36.88770704 58.56469889 -35.87109375 50.48046875 C-34.86704725 42.9554821 -33.75755584 35.45621433 -32.43359375 27.98046875 C-32.29638916 27.13959717 -32.15918457 26.29872559 -32.01782227 25.43237305 C-30.38920805 16.62869586 -26.91682262 9.84111577 -19.56640625 4.58203125 C-12.75820565 0.69499631 -7.77129985 -0.12990116 0 0 Z " fill="#ED5707" transform="translate(196.30859375,144.70703125)"/>
<path d="M0 0 C0.66 0.33 1.32 0.66 2 1 C0.6078125 1.928125 0.6078125 1.928125 -0.8125 2.875 C-5.05630136 6.39985148 -5.80319683 10.80587426 -7 16 C-7.19335938 16.68449219 -7.38671875 17.36898437 -7.5859375 18.07421875 C-8.87680701 22.68580331 -9.39696538 27.22474125 -9.75390625 31.99609375 C-10 34 -10 34 -11 35 C-11.20839015 36.64107242 -11.36751725 38.28856293 -11.5 39.9375 C-11.89022298 44.78044597 -11.89022298 44.78044597 -13 47 C-13.03070592 50.08813817 -12.93259424 53.16326365 -12.83984375 56.25 C-13 59 -13 59 -15 61 C-15.52356776 63.20287749 -15.52356776 63.20287749 -15.78125 65.76953125 C-15.90000488 66.73528076 -16.01875977 67.70103027 -16.14111328 68.69604492 C-16.2595459 69.7244751 -16.37797852 70.75290527 -16.5 71.8125 C-16.75676517 73.9089827 -17.01457183 76.00533812 -17.2734375 78.1015625 C-17.39686523 79.11637695 -17.52029297 80.13119141 -17.64746094 81.17675781 C-18.47790439 87.8272066 -19.31496354 94.50612874 -21 101 C-22.3417434 106.97495109 -23.2803921 112.86138377 -23.75390625 118.96875 C-24 121 -24 121 -25 123 C-25.31045526 125.59143905 -25.50973912 128.18371732 -25.71875 130.78515625 C-26 133 -26 133 -27 134 C-27.03188626 137.01097414 -26.9314875 140.00995052 -26.83984375 143.01953125 C-27.00239434 146.04455801 -27.59170584 147.39678958 -29 150 C-29.41207408 152.32283358 -29.41207408 152.32283358 -29.5625 154.6875 C-29.90035587 158.90035587 -29.90035587 158.90035587 -31 160 C-31.2101919 161.76619587 -31.36843437 163.53871338 -31.5 165.3125 C-31.89366211 170.57773069 -31.89366211 170.57773069 -32.5390625 173.140625 C-33.14954639 175.23738698 -33.14954639 175.23738698 -32.875 178.4375 C-33.00965365 182.27512916 -33.77557071 183.94140973 -36 187 C-28.86109409 186.85321876 -23.79811719 185.9022033 -17.77734375 181.9609375 C-17.19082031 181.64382813 -16.60429687 181.32671875 -16 181 C-15.34 181.33 -14.68 181.66 -14 182 C-20.84039101 186.93252685 -27.19293724 191.00080259 -36 190 C-37.72241211 188.96655273 -37.72241211 188.96655273 -39 187 C-38.90906432 184.27868717 -38.6479526 181.88729292 -38.19140625 179.22265625 C-38.07039047 178.43731003 -37.94937469 177.65196381 -37.82469177 176.84281921 C-37.4202479 174.24651567 -36.99161933 171.65482996 -36.5625 169.0625 C-36.27406443 167.24597831 -35.98697149 165.42924296 -35.70117188 163.61230469 C-34.96433886 158.95953714 -34.20629761 154.31053568 -33.43927002 149.66265869 C-33.02706106 147.16403208 -32.61809282 144.66490227 -32.21044922 142.16552734 C-30.87925589 134.01535637 -29.5190489 125.87034933 -28.13845825 117.72840881 C-26.80862292 109.88365646 -25.50253593 102.0349876 -24.19702148 94.18615723 C-23.71230023 91.27275164 -23.22680372 88.35947574 -22.74104309 85.44624329 C-22.51103926 84.06623041 -22.28129049 82.68617499 -22.05180359 81.30607605 C-21.44278515 77.64523965 -20.82880525 73.98531607 -20.20825195 70.32641602 C-18.84985215 62.2937846 -17.57911329 54.27173014 -16.5625 46.1875 C-15.5584535 38.66251335 -14.44896209 31.16324558 -13.125 23.6875 C-12.98779541 22.84662842 -12.85059082 22.00575684 -12.70922852 21.1394043 C-11.05320121 12.18754223 -7.42148496 5.35037288 0 0 Z " fill="#5D1405" transform="translate(177,149)"/>
<path d="M0 0 C1.2409845 0.00007553 2.48196899 0.00015106 3.76055908 0.00022888 C5.10957886 0.00533508 6.45859823 0.01055107 7.80761719 0.01586914 C9.19195505 0.01773515 10.57629357 0.01915819 11.96063232 0.02015686 C15.59710526 0.02396766 19.23353801 0.03378564 22.86999512 0.04486084 C26.58357194 0.05510589 30.29715529 0.0596611 34.01074219 0.06469727 C41.29201047 0.07540923 48.57324569 0.09246835 55.85449219 0.11352539 C56.34949219 2.58852539 56.34949219 2.58852539 56.85449219 5.11352539 C50.8871144 10.64167994 45.96884815 14.4906542 37.85449219 16.11352539 C37.52449219 16.77352539 37.19449219 17.43352539 36.85449219 18.11352539 C36.52449219 16.46352539 36.19449219 14.81352539 35.85449219 13.11352539 C38.82449219 13.60852539 38.82449219 13.60852539 41.85449219 14.11352539 C41.89574219 13.35040039 41.93699219 12.58727539 41.97949219 11.80102539 C42.85449219 9.11352539 42.85449219 9.11352539 45.85449219 7.42602539 C46.84449219 6.99290039 47.83449219 6.55977539 48.85449219 6.11352539 C49.18449219 5.45352539 49.51449219 4.79352539 49.85449219 4.11352539 C34.01449219 4.11352539 18.17449219 4.11352539 1.85449219 4.11352539 C1.52449219 4.77352539 1.19449219 5.43352539 0.85449219 6.11352539 C0.35949219 5.61852539 0.35949219 5.61852539 -0.14550781 5.11352539 C-5.44256251 4.69807012 -8.54081446 5.54346399 -13.14550781 8.11352539 C-13.80550781 8.11352539 -14.46550781 8.11352539 -15.14550781 8.11352539 C-15.80550781 9.76352539 -16.46550781 11.41352539 -17.14550781 13.11352539 C-18.13550781 13.11352539 -19.12550781 13.11352539 -20.14550781 13.11352539 C-20.64050781 13.60852539 -21.13550781 14.10352539 -21.64550781 14.61352539 C-22.14050781 15.10852539 -22.63550781 15.60352539 -23.14550781 16.11352539 C-24.13550781 16.11352539 -25.12550781 16.11352539 -26.14550781 16.11352539 C-26.14550781 16.77352539 -26.14550781 17.43352539 -26.14550781 18.11352539 C-27.13550781 18.44352539 -28.12550781 18.77352539 -29.14550781 19.11352539 C-29.80550781 20.10352539 -30.46550781 21.09352539 -31.14550781 22.11352539 C-33.80844797 23.88881883 -36.10255855 25.09920897 -39.14550781 26.11352539 C-39.87874577 28.12860897 -39.87874577 28.12860897 -40.14550781 30.11352539 C-40.14550781 29.45352539 -40.14550781 28.79352539 -40.14550781 28.11352539 C-48.2624143 32.09856992 -55.10849218 37.51219147 -62.14550781 43.11352539 C-62.47550781 42.45352539 -62.80550781 41.79352539 -63.14550781 41.11352539 C-62.28570312 40.44708008 -61.42589844 39.78063477 -60.54003906 39.09399414 C-53.62717961 33.71043251 -46.82033222 28.24999661 -40.23461914 22.46777344 C-36.35885823 19.11352539 -36.35885823 19.11352539 -34.14550781 19.11352539 C-33.89671875 18.51668945 -33.64792969 17.91985352 -33.39160156 17.30493164 C-31.9623215 14.79137014 -30.56592738 13.69761727 -28.20800781 12.05102539 C-25.3046117 10.01344994 -25.3046117 10.01344994 -22.73144531 7.59399414 C-20.60758623 5.61137692 -18.35903056 4.66116232 -15.70800781 3.48852539 C-14.76054687 3.06313477 -13.81308594 2.63774414 -12.83691406 2.19946289 C-8.40657271 0.4118941 -4.79193526 -0.00973971 0 0 Z " fill="#F8AA41" transform="translate(302.1455078125,144.886474609375)"/>
<path d="M0 0 C1.32 0 2.64 0 4 0 C4.356132 3.23910529 4.34548779 4.56322159 2.28515625 7.16796875 C1.18494141 8.16763672 1.18494141 8.16763672 0.0625 9.1875 C-2.87557386 11.78710767 -2.87557386 11.78710767 -5 15 C-5.70898438 15.40992188 -6.41796875 15.81984375 -7.1484375 16.2421875 C-10.75588542 18.46595677 -13.57856079 21.1998121 -16.625 24.125 C-21.71446143 28.93661157 -26.90840243 33.49516299 -32.3984375 37.8515625 C-36.02814622 40.8490697 -39.37225106 44.12895841 -42.7109375 47.4453125 C-45 49 -45 49 -47.7890625 48.7421875 C-48.51867187 48.49726563 -49.24828125 48.25234375 -50 48 C-48.1875 45 -48.1875 45 -46 42 C-45.01 42 -44.02 42 -43 42 C-39.75685563 40.72239767 -39.02041177 40.03061766 -37 37 C-36.61500109 35.34450469 -36.27206865 33.6777567 -36 32 C-32.535 32.495 -32.535 32.495 -29 33 C-29.33 31.02 -29.66 29.04 -30 27 C-29.01 27.33 -28.02 27.66 -27 28 C-26.67 27.34 -26.34 26.68 -26 26 C-25.01 26 -24.02 26 -23 26 C-22.67 25.34 -22.34 24.68 -22 24 C-21.33333333 22.66666667 -20.66666667 21.33333333 -20 20 C-20.66 19.67 -21.32 19.34 -22 19 C-20.68 18.01 -19.36 17.02 -18 16 C-17.01 16.99 -16.02 17.98 -15 19 C-14.505 17.515 -14.505 17.515 -14 16 C-12.66666667 15.66666667 -11.33333333 15.33333333 -10 15 C-9.67 14.01 -9.34 13.02 -9 12 C-7.66666667 10.66666667 -6.33333333 9.33333333 -5 8 C-3.99431758 6.33675599 -2.99335201 4.67063747 -2 3 C-1.34 2.67 -0.68 2.34 0 2 C0 1.34 0 0.68 0 0 Z " fill="#E48F2C" transform="translate(326,168)"/>
<path d="M0 0 C0.33 0 0.66 0 1 0 C1.15012547 6.28650399 0.66737863 12.01932372 -0.5 18.1875 C-1.43396367 23.19808886 -2.18217848 27.87623012 -2 33 C-2 35.8486235 -2.18733602 38.60102534 -2.4375 41.4375 C-2.55931641 42.85869141 -2.55931641 42.85869141 -2.68359375 44.30859375 C-3 47 -3 47 -3.54296875 49.1328125 C-4.1479444 51.23668369 -4.1479444 51.23668369 -3.875 54.4375 C-4.00965365 58.27512916 -4.77557071 59.94140973 -7 63 C0.13890591 62.85321876 5.20188281 61.9022033 11.22265625 57.9609375 C11.80917969 57.64382813 12.39570313 57.32671875 13 57 C13.66 57.33 14.32 57.66 15 58 C8.15960899 62.93252685 1.80706276 67.00080259 -7 66 C-8.72680664 64.99511719 -8.72680664 64.99511719 -10 63 C-9.8846142 60.13167414 -9.60024125 57.57726204 -9.12109375 54.765625 C-8.93095955 53.53184113 -8.93095955 53.53184113 -8.73698425 52.27313232 C-8.32008041 49.59590092 -7.87920484 46.92324134 -7.4375 44.25 C-7.14827463 42.42598726 -6.8603524 40.6017674 -6.57373047 38.77734375 C-5.74072997 33.51402251 -4.87661358 28.2562161 -4 23 C-3.88170837 22.28948486 -3.76341675 21.57896973 -3.64154053 20.84692383 C-2.47983964 13.88826922 -1.27123681 6.93945739 0 0 Z " fill="#5B1106" transform="translate(148,273)"/>
<path d="M0 0 C0 0.66 0 1.32 0 2 C-2.31 2.99 -4.62 3.98 -7 5 C-5.02 4.67 -3.04 4.34 -1 4 C-1.66 5.65 -2.32 7.3 -3 9 C-3.99 9 -4.98 9 -6 9 C-6.495 9.495 -6.99 9.99 -7.5 10.5 C-7.995 10.995 -8.49 11.49 -9 12 C-9.99 12 -10.98 12 -12 12 C-12 12.66 -12 13.32 -12 14 C-12.99 14.33 -13.98 14.66 -15 15 C-15.66 15.99 -16.32 16.98 -17 18 C-19.66294015 19.77529344 -21.95705074 20.98568358 -25 22 C-25.73323796 24.01508358 -25.73323796 24.01508358 -26 26 C-26 25.34 -26 24.68 -26 24 C-34.11690648 27.98504453 -40.96298437 33.39866608 -48 39 C-48.33 38.34 -48.66 37.68 -49 37 C-48.14019531 36.33355469 -47.28039062 35.66710937 -46.39453125 34.98046875 C-39.4816718 29.59690712 -32.67482441 24.13647122 -26.08911133 18.35424805 C-22.21335041 15 -22.21335041 15 -20 15 C-19.75121094 14.40316406 -19.50242187 13.80632812 -19.24609375 13.19140625 C-17.81681368 10.67784475 -16.42041957 9.58409188 -14.0625 7.9375 C-12.02610673 6.50250885 -10.16048001 5.16205335 -8.40625 3.390625 C-6.08101836 1.09122927 -3.25656719 0 0 0 Z " fill="#975319" transform="translate(288,149)"/>
<path d="M0 0 C1.32102974 0.0001133 1.32102974 0.0001133 2.66874695 0.00022888 C3.61570938 0.00539017 4.56267181 0.01055145 5.53833008 0.01586914 C6.51071121 0.01728409 7.48309235 0.01869904 8.48493958 0.02015686 C11.59261137 0.02575722 14.70021129 0.03830977 17.80786133 0.05102539 C19.91398008 0.05604034 22.02009996 0.06060326 24.1262207 0.06469727 C29.29096197 0.07572677 34.45564946 0.09299164 39.62036133 0.11352539 C41.2625117 5.23535982 39.97766988 9.88128511 38.96801758 15.00805664 C38.69954262 16.42908943 38.69954262 16.42908943 38.42564392 17.87882996 C37.85347127 20.89630748 37.26835465 23.9111072 36.68286133 26.92602539 C36.29203064 28.97469026 35.90204676 31.02351687 35.51293945 33.07250977 C34.55855302 38.08810954 33.59255234 43.10134763 32.62036133 48.11352539 C32.29036133 48.11352539 31.96036133 48.11352539 31.62036133 48.11352539 C31.2824066 41.8050371 32.06163365 36.1515652 33.31880188 29.96398926 C34.50491273 24.02587045 35.39283811 18.06335984 36.22583008 12.06665039 C36.36130249 11.10452637 36.4967749 10.14240234 36.63635254 9.15112305 C36.96633846 6.80552774 37.29430343 4.45966937 37.62036133 2.11352539 C31.60623686 2.23206974 25.59226765 2.35633787 19.57836914 2.48583984 C17.53380523 2.52906906 15.489208 2.57075231 13.44458008 2.61083984 C10.50046769 2.66883428 7.55652111 2.73244383 4.61254883 2.79711914 C3.70294403 2.81383163 2.79333923 2.83054413 1.85617065 2.84776306 C-2.6517511 2.95225795 -6.9426887 3.21655925 -11.37963867 4.11352539 C-7.59754423 1.11393324 -4.82108062 -0.01381398 0 0 Z " fill="#3D1803" transform="translate(190.379638671875,144.886474609375)"/>
<path d="M0 0 C0.66 0.33 1.32 0.66 2 1 C1.071875 1.61875 0.14375 2.2375 -0.8125 2.875 C-5.05630136 6.39985148 -5.80319683 10.80587426 -7 16 C-7.19335938 16.68449219 -7.38671875 17.36898437 -7.5859375 18.07421875 C-8.87680701 22.68580331 -9.39696538 27.22474125 -9.75390625 31.99609375 C-10 34 -10 34 -11 35 C-11.28306234 37.54756104 -11.44815786 40.09510022 -11.62109375 42.65234375 C-12 45 -12 45 -14 47 C-14.67292501 48.96690374 -14.67292501 48.96690374 -15.125 51.125 C-15.41375 52.40375 -15.7025 53.6825 -16 55 C-16.33 55 -16.66 55 -17 55 C-17.34687135 47.49070392 -16.03782346 40.43317675 -14.6875 33.0625 C-14.47416016 31.83853516 -14.26082031 30.61457031 -14.04101562 29.35351562 C-10.06076771 7.26611001 -10.06076771 7.26611001 0 0 Z " fill="#6E290B" transform="translate(177,149)"/>
<path d="M0 0 C1.38004856 0.00373555 2.7600998 0.00657996 4.14015198 0.00857544 C7.75197827 0.01616926 11.36364074 0.03578056 14.97540283 0.0579834 C18.66912623 0.07853404 22.36287639 0.08759677 26.05664062 0.09765625 C33.28913675 0.11903102 40.52149844 0.1531148 47.75390625 0.1953125 C48.24890625 2.6703125 48.24890625 2.6703125 48.75390625 5.1953125 C46.11390625 7.5053125 43.47390625 9.8153125 40.75390625 12.1953125 C40.09390625 11.8653125 39.43390625 11.5353125 38.75390625 11.1953125 C39.31980469 10.71320313 39.88570313 10.23109375 40.46875 9.734375 C41.20222656 9.10273438 41.93570313 8.47109375 42.69140625 7.8203125 C43.78775391 6.88058594 43.78775391 6.88058594 44.90625 5.921875 C46.83771531 4.31783536 46.83771531 4.31783536 47.75390625 2.1953125 C39.36523124 2.30296142 30.97664481 2.41562436 22.58812428 2.53465176 C18.69281069 2.58976682 14.79748945 2.64316817 10.90209961 2.69262695 C7.14137634 2.7404394 3.38074082 2.79278759 -0.37987709 2.84825325 C-1.81313193 2.86860053 -3.24641076 2.88732587 -4.67970848 2.90438652 C-6.69041898 2.92859987 -8.70104992 2.95916537 -10.71166992 2.98999023 C-11.85528488 3.00553452 -12.99889984 3.0210788 -14.1771698 3.03709412 C-16.97405198 3.18128739 -19.52336081 3.56114365 -22.24609375 4.1953125 C-21.24609375 2.1953125 -21.24609375 2.1953125 -18.57397461 1.08251953 C-12.52457409 -0.48503041 -6.20066154 -0.04947332 0 0 Z " fill="#44290B" transform="translate(310.24609375,144.8046875)"/>
<path d="M0 0 C0.66 0.33 1.32 0.66 2 1 C0.58653438 2.44064765 -0.83091211 3.87739015 -2.25 5.3125 C-3.43335938 6.51326172 -3.43335938 6.51326172 -4.640625 7.73828125 C-10.12953368 13 -10.12953368 13 -13 13 C-13.309375 13.8353125 -13.309375 13.8353125 -13.625 14.6875 C-15.57683032 17.97012371 -17.94230994 19.70673246 -21 22 C-21.66 22 -22.32 22 -23 22 C-23.226875 22.5775 -23.45375 23.155 -23.6875 23.75 C-25.33038023 26.5663661 -27.39533227 28.08077114 -30 30 C-30.66 29.67 -31.32 29.34 -32 29 C-31.525625 28.608125 -31.05125 28.21625 -30.5625 27.8125 C-28.64820367 25.59191626 -28.38733012 23.86624291 -28 21 C-26.68 21 -25.36 21 -24 21 C-24 20.01 -24 19.02 -24 18 C-23.01 18 -22.02 18 -21 18 C-21 17.34 -21 16.68 -21 16 C-20.34 16 -19.68 16 -19 16 C-19 15.34 -19 14.68 -19 14 C-18.34 14 -17.68 14 -17 14 C-17 13.34 -17 12.68 -17 12 C-16.13117188 11.77570313 -15.26234375 11.55140625 -14.3671875 11.3203125 C-10.42983192 9.77643061 -8.17936763 7.78037409 -5.125 4.875 C-4.37863281 4.17310547 -4.37863281 4.17310547 -3.6171875 3.45703125 C-2.40335441 2.31322699 -1.20050642 1.15778377 0 0 Z " fill="#914D14" transform="translate(264,231)"/>
<path d="M0 0 C0.33 0 0.66 0 1 0 C1.33 1.98 1.66 3.96 2 6 C0.68 6 -0.64 6 -2 6 C-1.8865625 6.71542969 -1.773125 7.43085938 -1.65625 8.16796875 C-2.14562441 12.19974653 -4.53108318 13.85056038 -7.5 16.3125 C-8.28697266 16.9940918 -8.28697266 16.9940918 -9.08984375 17.68945312 C-10.38234153 18.8057012 -11.68978142 19.90460622 -13 21 C-13 19.33333333 -13 17.66666667 -13 16 C-11.68 16 -10.36 16 -9 16 C-9.309375 15.38125 -9.61875 14.7625 -9.9375 14.125 C-10.625 12.75 -11.3125 11.375 -12 10 C-11.34 10 -10.68 10 -10 10 C-9.938125 9.443125 -9.87625 8.88625 -9.8125 8.3125 C-8.66626128 5.05012827 -6.50609803 3.31332126 -4 1 C-3.34 1.33 -2.68 1.66 -2 2 C-2 2.66 -2 3.32 -2 4 C-1.34 4 -0.68 4 0 4 C0 2.68 0 1.36 0 0 Z " fill="#FB8413" transform="translate(238,246)"/>
<path d="M0 0 C-1.59092052 4.13639336 -4.60474918 7.23213248 -8 10 C-8.66 10 -9.32 10 -10 10 C-10.25378418 10.57975586 -10.50756836 11.15951172 -10.76904297 11.75683594 C-12.13758615 14.25072223 -13.66997769 15.89743836 -15.6953125 17.890625 C-16.76845703 18.95410156 -16.76845703 18.95410156 -17.86328125 20.0390625 C-18.60964844 20.76867187 -19.35601562 21.49828125 -20.125 22.25 C-20.87910156 22.99507813 -21.63320312 23.74015625 -22.41015625 24.5078125 C-24.26900772 26.3431342 -26.13237005 28.1736191 -28 30 C-28 27 -28 27 -25.375 24.1875 C-23.68574306 22.57063979 -21.97583228 20.97746524 -20.265625 19.3828125 C-18.79287295 17.9731784 -17.39100359 16.49036099 -16 15 C-16 14.01 -16 13.02 -16 12 C-14.72245446 9.9639118 -13.39300182 7.95890881 -12 6 C-11.01 6.33 -10.02 6.66 -9 7 C-9 6.01 -9 5.02 -9 4 C-8.34 4 -7.68 4 -7 4 C-7 3.01 -7 2.02 -7 1 C-4 0 -4 0 0 0 Z " fill="#781C07" transform="translate(192,300)"/>
<path d="M0 0 C1.13917374 0.00666183 1.13917374 0.00666183 2.30136108 0.01345825 C3.59247299 0.01368484 3.59247299 0.01368484 4.90966797 0.01391602 C5.83991791 0.02423859 6.77016785 0.03456116 7.72860718 0.04519653 C8.68020721 0.04802643 9.63180725 0.05085632 10.61224365 0.05377197 C13.6589706 0.06498914 16.70540621 0.09009641 19.75204468 0.11550903 C21.81454044 0.12553685 23.8770408 0.13466304 25.93954468 0.14285278 C31.00215735 0.16493349 36.06455158 0.19947374 41.12704468 0.24050903 C41.12704468 2.55050903 41.12704468 4.86050903 41.12704468 7.24050903 C40.61947632 6.59307739 40.11190796 5.94564575 39.58895874 5.27859497 C36.24310832 2.50874578 34.04434628 2.69951382 29.73641968 2.63113403 C29.03180603 2.61459778 28.32719238 2.59806152 27.60122681 2.58102417 C25.35974366 2.53259764 23.11893854 2.51118716 20.87704468 2.49050903 C19.35357316 2.46234456 17.83013316 2.43241644 16.30673218 2.40066528 C12.58031711 2.32684311 8.85403088 2.27723435 5.12704468 2.24050903 C4.79704468 2.90050903 4.46704468 3.56050903 4.12704468 4.24050903 C3.13704468 3.91050903 2.14704468 3.58050903 1.12704468 3.24050903 C-0.53657949 2.89230863 -2.20290704 2.55646411 -3.87295532 2.24050903 C-1.87295532 0.24050903 -1.87295532 0.24050903 0 0 Z " fill="#E8751F" transform="translate(186.87295532226563,146.75949096679688)"/>
<path d="M0 0 C0.99 0.66 1.98 1.32 3 2 C3.99 2.33 4.98 2.66 6 3 C1.66666667 7.33333333 -2.66666667 11.66666667 -7 16 C-7.78153442 16.79664063 -7.78153442 16.79664063 -8.57885742 17.609375 C-13.30671655 22.2357082 -18.4899474 24.32946143 -25.0625 24.3125 C-26.70972907 24.23341493 -28.35667644 24.13822348 -30 24 C-27.22809708 21.22809708 -24.83247344 21.51965742 -21 21 C-18.29227324 20.13845058 -16.51049318 19.51049318 -14.5 17.5 C-13 16 -13 16 -10.6875 15.25 C-6.7528708 13.4199399 -4.34814914 10.61599963 -2 7 C-1.126062 3.77566873 -1.126062 3.77566873 -1 1 C-0.67 0.67 -0.34 0.34 0 0 Z " fill="#D1320F" transform="translate(171,312)"/>
<path d="M0 0 C0 3 0 3 -1.4609375 4.60546875 C-2.09257812 5.12753906 -2.72421875 5.64960938 -3.375 6.1875 C-4.00148438 6.71730469 -4.62796875 7.24710938 -5.2734375 7.79296875 C-7 9 -7 9 -9 9 C-9.185625 9.556875 -9.37125 10.11375 -9.5625 10.6875 C-11.34671602 13.55776056 -13.42277114 14.839425 -16.1953125 16.703125 C-18.25249905 18.10775334 -18.25249905 18.10775334 -20.6875 20.6875 C-22.8102693 22.8102693 -24.33274504 23.77025508 -27 25 C-26.04270084 23.87411986 -25.08412105 22.7493285 -24.125 21.625 C-23.59132813 20.99851563 -23.05765625 20.37203125 -22.5078125 19.7265625 C-21.38567993 18.44163349 -20.20628025 17.20628025 -19 16 C-18.896875 15.175 -18.79375 14.35 -18.6875 13.5 C-18.460625 12.675 -18.23375 11.85 -18 11 C-16.35448038 10.28272222 -14.68577711 9.61674772 -13 9 C-12.71125 8.34 -12.4225 7.68 -12.125 7 C-11 5 -11 5 -7.625 3.9375 C-6.42875 3.628125 -5.2325 3.31875 -4 3 C-1.64040542 1.50513154 -1.64040542 1.50513154 0 0 Z " fill="#E5A143" transform="translate(348,157)"/>
<path d="M0 0 C0.33 0.99 0.66 1.98 1 3 C0.0479279 4.00596297 -0.91187346 5.00461563 -1.875 6 C-2.40867188 6.556875 -2.94234375 7.11375 -3.4921875 7.6875 C-5 9 -5 9 -7 9 C-7 9.66 -7 10.32 -7 11 C-6.34 11.33 -5.68 11.66 -5 12 C-5.99 12.66 -6.98 13.32 -8 14 C-8.99 13.67 -9.98 13.34 -11 13 C-11.2475 13.7425 -11.495 14.485 -11.75 15.25 C-13.09147301 18.20124062 -14.60905526 19.84814974 -17 22 C-17 21.01 -17 20.02 -17 19 C-16.34 19 -15.68 19 -15 19 C-15 18.34 -15 17.68 -15 17 C-15.66 17 -16.32 17 -17 17 C-16.43159212 13.64065063 -15.50952389 12.19309912 -12.91015625 10.01953125 C-12.29076172 9.49552734 -11.67136719 8.97152344 -11.03320312 8.43164062 C-10.05770508 7.63016602 -10.05770508 7.63016602 -9.0625 6.8125 C-8.41603516 6.26658203 -7.76957031 5.72066406 -7.10351562 5.15820312 C-2.35080645 1.17540323 -2.35080645 1.17540323 0 0 Z " fill="#F3720D" transform="translate(253,177)"/>
<path d="M0 0 C0.33 0 0.66 0 1 0 C1.22127098 2.29045368 1.4266504 4.58244764 1.625 6.875 C1.74101562 8.15117187 1.85703125 9.42734375 1.9765625 10.7421875 C1.98429688 11.81726563 1.99203125 12.89234375 2 14 C1.34 14.66 0.68 15.32 0 16 C-0.52356776 18.20287749 -0.52356776 18.20287749 -0.78125 20.76953125 C-0.89992432 21.73552246 -1.01859863 22.70151367 -1.14086914 23.69677734 C-1.25938232 24.72496582 -1.37789551 25.7531543 -1.5 26.8125 C-1.7582815 28.90505091 -2.01739179 30.9974997 -2.27734375 33.08984375 C-2.40093262 34.1041748 -2.52452148 35.11850586 -2.65185547 36.16357422 C-3.09075823 39.73943139 -3.55634207 43.30798155 -4.0625 46.875 C-4.19785156 47.86242187 -4.33320313 48.84984375 -4.47265625 49.8671875 C-4.64667969 50.57101563 -4.82070312 51.27484375 -5 52 C-5.99 52.495 -5.99 52.495 -7 53 C-6.05041081 42.07413848 -4.97461851 31.18136648 -3.5 20.3125 C-3.38164795 19.42997559 -3.2632959 18.54745117 -3.14135742 17.63818359 C-2.31609788 11.70862385 -1.23497099 5.8574925 0 0 Z " fill="#C4390F" transform="translate(162,194)"/>
<path d="M0 0 C0.33 0 0.66 0 1 0 C1.33 1.98 1.66 3.96 2 6 C3.65 5.34 5.3 4.68 7 4 C2.99612193 8.17491752 -1.30794843 11.81436586 -5.8125 15.4375 C-6.82280273 16.25831055 -6.82280273 16.25831055 -7.85351562 17.09570312 C-11.33220625 19.90861564 -14.84078509 22.68245339 -18.38671875 25.41015625 C-19.03213623 25.90781494 -19.67755371 26.40547363 -20.3425293 26.91821289 C-22 28 -22 28 -24 28 C-24 27.34 -24 26.68 -24 26 C-22.1015625 24.2734375 -22.1015625 24.2734375 -19.625 22.375 C-18.81289062 21.74335938 -18.00078125 21.11171875 -17.1640625 20.4609375 C-15 19 -15 19 -13 19 C-12.67 18.01 -12.34 17.02 -12 16 C-10.2578125 14.2109375 -10.2578125 14.2109375 -8.125 12.375 C-7.42632812 11.76398438 -6.72765625 11.15296875 -6.0078125 10.5234375 C-4 9 -4 9 -1 8 C-0.67 5.36 -0.34 2.72 0 0 Z " fill="#8B1F01" transform="translate(221,193)"/>
<path d="M0 0 C2.31 0.33 4.62 0.66 7 1 C5.46679261 4.78133733 3.16776728 6.89443552 0.125 9.5625 C-0.73867188 10.32691406 -1.60234375 11.09132812 -2.4921875 11.87890625 C-7.04506589 15.72970526 -7.04506589 15.72970526 -9 17 C-11.75 16.6875 -11.75 16.6875 -14 16 C-12.1875 13 -12.1875 13 -10 10 C-9.01 10 -8.02 10 -7 10 C-3.75685563 8.72239767 -3.02041177 8.03061766 -1 5 C-0.61500109 3.34450469 -0.27206865 1.6777567 0 0 Z " fill="#EA8D25" transform="translate(290,200)"/>
<path d="M0 0 C1.20205078 0.00644531 2.40410156 0.01289063 3.64257812 0.01953125 C5.51139648 0.04466797 5.51139648 0.04466797 7.41796875 0.0703125 C9.31579102 0.08384766 9.31579102 0.08384766 11.25195312 0.09765625 C14.36998439 0.12118856 17.48762972 0.15406705 20.60546875 0.1953125 C18.60546875 2.1953125 18.60546875 2.1953125 15.34765625 2.390625 C14.07148438 2.36742187 12.7953125 2.34421875 11.48046875 2.3203125 C9.55847656 2.29324219 9.55847656 2.29324219 7.59765625 2.265625 C6.11652344 2.23082031 6.11652344 2.23082031 4.60546875 2.1953125 C4.27546875 2.8553125 3.94546875 3.5153125 3.60546875 4.1953125 C3.27546875 3.8653125 2.94546875 3.5353125 2.60546875 3.1953125 C-3.5058392 2.39818538 -7.45201886 4.38514691 -12.84375 7.19921875 C-15.61147022 8.28002833 -16.67681052 8.25821499 -19.39453125 7.1953125 C-14.76953125 4.1953125 -14.76953125 4.1953125 -11.39453125 4.1953125 C-11.39453125 3.5353125 -11.39453125 2.8753125 -11.39453125 2.1953125 C-7.44544911 0.33805499 -4.34685228 -0.04120239 0 0 Z " fill="#F3A643" transform="translate(299.39453125,146.8046875)"/>
<path d="M0 0 C0.66 0.33 1.32 0.66 2 1 C-2.45175084 5.55830871 -6.98009854 9.94090499 -11.8125 14.09375 C-14.35511399 16.30945648 -16.83110198 18.59098592 -19.3125 20.875 C-23.93395746 25.0973901 -28.69811741 29.0874516 -33.58984375 32.9921875 C-35.86458234 34.88718853 -37.94382399 36.87226334 -40 39 C-40.66 38.67 -41.32 38.34 -42 38 C-36.23482184 32.0726762 -30.13486182 26.66155697 -23.8359375 21.3125 C-15.7066696 14.39672653 -7.78877826 7.2971278 0 0 Z " fill="#411A05" transform="translate(318,183)"/>
<path d="M0 0 C0.99 0.33 1.98 0.66 3 1 C1.1145429 3.13504712 -0.78233712 5.25765603 -2.6875 7.375 C-3.48317383 8.27992188 -3.48317383 8.27992188 -4.29492188 9.203125 C-7.31972156 12.54339459 -9.58448864 14.65081597 -14 16 C-15.36365283 16.95824253 -16.70794169 17.94721175 -18 19 C-18 18.01 -18 17.02 -18 16 C-16.34997172 14.64613064 -14.6825613 13.31321858 -13 12 C-12.67 11.01 -12.34 10.02 -12 9 C-7.66666667 6 -7.66666667 6 -5 6 C-4.67 4.68 -4.34 3.36 -4 2 C-2.68 2 -1.36 2 0 2 C0 1.34 0 0.68 0 0 Z " fill="#BB6A1D" transform="translate(277,217)"/>
<path d="M0 0 C0.66 0.33 1.32 0.66 2 1 C1.43410156 1.42410156 0.86820313 1.84820312 0.28515625 2.28515625 C-4.83255897 6.16830324 -4.83255897 6.16830324 -7 11.9375 C-7 12.948125 -7 13.95875 -7 15 C-11 16 -15 17 -19 18 C-15.66666667 14.66666667 -12.33333333 11.33333333 -9 8 C-7.7315625 6.700625 -7.7315625 6.700625 -6.4375 5.375 C-4.37888015 3.36916527 -2.34523863 1.65035311 0 0 Z M-13 16 C-12.34 16 -11.68 16 -11 16 C-11 16.66 -11 17.32 -11 18 C-11.66 18 -12.32 18 -13 18 C-13 17.34 -13 16.68 -13 16 Z " fill="#B04E0F" transform="translate(237,188)"/>
<path d="M0 0 C0.33 0 0.66 0 1 0 C1.1996978 7.07817741 1.11377388 13.664061 -0.4921875 20.57421875 C-1.21283539 24.0166983 -1.48234638 27.46618187 -1.75390625 30.96875 C-2 33 -2 33 -3 35 C-3.66 35 -4.32 35 -5 35 C-5 36.98 -5 38.96 -5 41 C-5.33 41 -5.66 41 -6 41 C-6.14372514 37.47873411 -6.15626568 34.51344438 -5.125 31.125 C-3.35882889 25.25056131 -2.7327049 19.12043793 -1.875 13.0625 C-1.69324219 11.80630859 -1.51148438 10.55011719 -1.32421875 9.25585938 C-0.87852126 6.17116361 -0.4372517 3.08590231 0 0 Z " fill="#AE330D" transform="translate(155,237)"/>
<path d="M0 0 C1.25723235 3.77169704 0.48125415 6.53960801 -0.3125 10.3125 C-1.64410565 16.92813488 -2.66282604 23.50472222 -3.47265625 30.20703125 C-4 33 -4 33 -6 36 C-6.69612515 23.59865936 -3.88751172 11.71767716 0 0 Z " fill="#C35A19" transform="translate(225,165)"/>
<path d="M0 0 C0.66 0 1.32 0 2 0 C0.37843976 4.10108886 -2.5767703 6.83148167 -5.6640625 9.859375 C-6.21613373 10.40861633 -6.76820496 10.95785767 -7.33700562 11.52374268 C-9.09501815 13.27059293 -10.8598689 15.01034601 -12.625 16.75 C-13.8207708 17.93573591 -15.01608865 19.1219288 -16.2109375 20.30859375 C-19.13540253 23.21105085 -22.06601874 26.1071641 -25 29 C-25.66 28.67 -26.32 28.34 -27 28 C-26.31373535 27.31897217 -25.6274707 26.63794434 -24.92041016 25.9362793 C-22.37213023 23.40611537 -19.82717421 20.8726304 -17.28320312 18.33813477 C-16.18221807 17.24217482 -15.08033668 16.14711456 -13.97753906 15.05297852 C-12.39150617 13.47909092 -10.80873713 11.90198372 -9.2265625 10.32421875 C-8.48740097 9.59279915 -8.48740097 9.59279915 -7.73330688 8.84660339 C-5.53593316 6.64959022 -3.73232241 4.59848362 -2 2 C-1.34 2 -0.68 2 0 2 C0 1.34 0 0.68 0 0 Z " fill="#500C03" transform="translate(219,271)"/>
<path d="M0 0 C0.33 0 0.66 0 1 0 C0.37947744 8.15510298 -1.02840241 16.0978451 -2.5625 24.125 C-2.79646484 25.36765625 -3.03042969 26.6103125 -3.27148438 27.890625 C-3.84387864 30.92781907 -4.42012948 33.96422606 -5 37 C-5.33 37 -5.66 37 -6 37 C-6.46051055 28.40380303 -4.70912587 20.36968994 -3 12 C-2.79890625 10.94941406 -2.5978125 9.89882812 -2.390625 8.81640625 C-1.13735294 2.27470588 -1.13735294 2.27470588 0 0 Z " fill="#2A0D02" transform="translate(228,156)"/>
<path d="M0 0 C1.32 0 2.64 0 4 0 C4.375 2.125 4.375 2.125 4 5 C2.25677649 7.29739641 0.30361963 9.26333339 -2 11 C-2.66 11 -3.32 11 -4 11 C-4.33 10.01 -4.66 9.02 -5 8 C-2.66666667 3.33333333 -2.66666667 3.33333333 0 2 C0 1.34 0 0.68 0 0 Z " fill="#F09F35" transform="translate(326,168)"/>
<path d="M0 0 C12.54 0 25.08 0 38 0 C37.67 0.99 37.34 1.98 37 3 C36.01 3.33 35.02 3.66 34 4 C34 3.01 34 2.02 34 1 C22.78 1 11.56 1 0 1 C0 0.67 0 0.34 0 0 Z " fill="#F2B457" transform="translate(320,147)"/>
<path d="M0 0 C0.66 0.33 1.32 0.66 2 1 C-9.38679245 13.87601078 -9.38679245 13.87601078 -15 18 C-15.99 17.67 -16.98 17.34 -18 17 C-16.54712339 15.66072279 -15.08752741 14.32873153 -13.625 13 C-12.81289062 12.2575 -12.00078125 11.515 -11.1640625 10.75 C-9 9 -9 9 -7 9 C-7 8.34 -7 7.68 -7 7 C-6.34 7 -5.68 7 -5 7 C-5 6.34 -5 5.68 -5 5 C-3.37446717 3.29319053 -1.70884005 1.62339805 0 0 Z " fill="#EC4906" transform="translate(195,273)"/>
<path d="M0 0 C0.66 0.66 1.32 1.32 2 2 C-1.75 5 -1.75 5 -4 5 C-4 5.66 -4 6.32 -4 7 C-5.96937661 8.62356346 -7.93345148 10.13559566 -10 11.625 C-10.57234375 12.04523438 -11.1446875 12.46546875 -11.734375 12.8984375 C-13.15203933 13.93805801 -14.57549262 14.96977591 -16 16 C-16.66 15.67 -17.32 15.34 -18 15 C-18 14.34 -18 13.68 -18 13 C-17.071875 12.525625 -16.14375 12.05125 -15.1875 11.5625 C-9.61915943 8.41169001 -4.86630124 4.11831642 0 0 Z " fill="#CF3401" transform="translate(196,220)"/>
<path d="M0 0 C0.33 0.99 0.66 1.98 1 3 C0.34773438 3.44730469 -0.30453125 3.89460937 -0.9765625 4.35546875 C-5.83963578 7.71945307 -10.53485553 11.12237454 -15 15 C-15.66 14.67 -16.32 14.34 -17 14 C-11.54006063 9.02033308 -6.00073223 4.31660302 0 0 Z " fill="#D57223" transform="translate(253,177)"/>
<path d="M0 0 C-3.72026686 3.23501466 -8.29146387 5.57417568 -13 7 C-15.28125 6.609375 -15.28125 6.609375 -17 6 C-12.375 3 -12.375 3 -9 3 C-9 2.34 -9 1.68 -9 1 C-5.57367167 -0.61798838 -3.61944899 -1.34053666 0 0 Z " fill="#DB9034" transform="translate(297,148)"/>
<path d="M0 0 C0 0.66 0 1.32 0 2 C-1.134375 2.495 -2.26875 2.99 -3.4375 3.5 C-7.98001019 5.73892406 -11.37476984 8.81593088 -15.01953125 12.29296875 C-17 14 -17 14 -20 15 C-18.59420235 11.62754242 -17.0416527 10.01791389 -14.0625 7.9375 C-12.02610673 6.50250885 -10.16048001 5.16205335 -8.40625 3.390625 C-6.08101836 1.09122927 -3.25656719 0 0 0 Z " fill="#421F08" transform="translate(288,149)"/>
<path d="M0 0 C0.66 0.33 1.32 0.66 2 1 C1.74956884 4.38082062 0.7185873 5.2814127 -1.75 7.75 C-5.01629806 10.01128327 -6.1690781 10.56337087 -10 10 C-9.34 9.67 -8.68 9.34 -8 9 C-7.67 8.01 -7.34 7.02 -7 6 C-5 5 -3 4 -1 3 C-0.67 2.01 -0.34 1.02 0 0 Z " fill="#EA851A" transform="translate(257,233)"/>
<path d="M0 0 C1.32 0.33 2.64 0.66 4 1 C0.37 4.63 -3.26 8.26 -7 12 C-7.33 10.68 -7.66 9.36 -8 8 C-7.01 8 -6.02 8 -5 8 C-4.34 6.35 -3.68 4.7 -3 3 C-2.01 3 -1.02 3 0 3 C0 2.01 0 1.02 0 0 Z " fill="#D5611D" transform="translate(208,279)"/>
<path d="M0 0 C0 3 0 3 -1.609375 4.75390625 C-2.31578125 5.35074219 -3.0221875 5.94757813 -3.75 6.5625 C-4.79414063 7.46162109 -4.79414063 7.46162109 -5.859375 8.37890625 C-7.84477963 9.88245173 -9.7375439 10.97578001 -12 12 C-11.690625 11.401875 -11.38125 10.80375 -11.0625 10.1875 C-9.89790296 7.91043228 -9.89790296 7.91043228 -9 5 C-6.68895182 3.94952356 -4.35416349 2.94992562 -2 2 C-1.34 1.34 -0.68 0.68 0 0 Z " fill="#EE5F03" transform="translate(233,241)"/>
<path d="M0 0 C0.66 0.66 1.32 1.32 2 2 C1.625 4.625 1.625 4.625 1 7 C-0.65 7.33 -2.3 7.66 -4 8 C-4 4.09161134 -2.49432124 2.88405893 0 0 Z " fill="#F2861A" transform="translate(281,209)"/>
<path d="M0 0 C0.33 0 0.66 0 1 0 C1.2763585 2.24691477 1.52018861 4.49784842 1.75 6.75 C1.88921875 8.00296875 2.0284375 9.2559375 2.171875 10.546875 C2 14 2 14 0.015625 16.453125 C-0.64953125 16.96359375 -1.3146875 17.4740625 -2 18 C-2.23268915 11.71739294 -1.40454548 6.11980533 0 0 Z " fill="#B93E10" transform="translate(162,194)"/>
<path d="M0 0 C0.99 0.33 1.98 0.66 3 1 C2.67 1.99 2.34 2.98 2 4 C1.01 4 0.02 4 -1 4 C-1.66 5.65 -2.32 7.3 -3 9 C-3.99 8.67 -4.98 8.34 -6 8 C-4.75237172 4.15314615 -3.6129609 1.97070595 0 0 Z " fill="#F76104" transform="translate(206,278)"/>
<path d="M0 0 C0.33 0 0.66 0 1 0 C1.33 1.98 1.66 3.96 2 6 C0.68 6 -0.64 6 -2 6 C-2 7.65 -2 9.3 -2 11 C-3.65 11 -5.3 11 -7 11 C-6.61402985 8.20171644 -6.19863427 7.1794116 -4.0625 5.25 C-2 4 -2 4 0 4 C0 2.68 0 1.36 0 0 Z " fill="#F8870E" transform="translate(238,246)"/>
<path d="M0 0 C-3.3 2.97 -6.6 5.94 -10 9 C-10 7.33333333 -10 5.66666667 -10 4 C-8.68 4 -7.36 4 -6 4 C-6.33 2.68 -6.66 1.36 -7 0 C-4 -1 -4 -1 0 0 Z " fill="#E87F20" transform="translate(235,258)"/>
<path d="M0 0 C-0.66 1.65 -1.32 3.3 -2 5 C-2.99 5 -3.98 5 -5 5 C-6.68798827 6.43750191 -6.68798827 6.43750191 -8 8 C-8.99 7.67 -9.98 7.34 -11 7 C-8.02900258 2.81859623 -5.38529922 0 0 0 Z M-13 8 C-12.34 8 -11.68 8 -11 8 C-11 8.66 -11 9.32 -11 10 C-11.99 9.67 -12.98 9.34 -14 9 C-13.67 8.67 -13.34 8.34 -13 8 Z " fill="#F89022" transform="translate(287,153)"/>
<path d="M0 0 C5.2954069 4.02878219 8.79164462 8.17469115 12 14 C8.17147621 12.48238697 6.26678134 10.20656585 3.75 7 C3.04359375 6.113125 2.3371875 5.22625 1.609375 4.3125 C0 2 0 2 0 0 Z " fill="#0F0F0F" transform="translate(340,311)"/>
<path d="M0 0 C0.99 0.495 0.99 0.495 2 1 C1.01 1.495 1.01 1.495 0 2 C0 1.34 0 0.68 0 0 Z M-3 2 C-2.01 2 -1.02 2 0 2 C0 2.66 0 3.32 0 4 C-0.66 4 -1.32 4 -2 4 C-1.94779297 4.93972656 -1.94779297 4.93972656 -1.89453125 5.8984375 C-1.86746094 6.71570313 -1.84039062 7.53296875 -1.8125 8.375 C-1.77769531 9.18710937 -1.74289063 9.99921875 -1.70703125 10.8359375 C-1.80371094 11.55007813 -1.90039062 12.26421875 -2 13 C-2.99 13.66 -3.98 14.32 -5 15 C-4.39174965 10.65535464 -3.73832608 6.32448133 -3 2 Z " fill="#DF3C03" transform="translate(158,249)"/>
<path d="M0 0 C0.66 0.33 1.32 0.66 2 1 C0.58653438 2.44064765 -0.83091211 3.87739015 -2.25 5.3125 C-3.43335938 6.51326172 -3.43335938 6.51326172 -4.640625 7.73828125 C-6.67394067 9.68743651 -8.70601078 11.37421406 -11 13 C-11.66 12.67 -12.32 12.34 -13 12 C-8.71 8.04 -4.42 4.08 0 0 Z " fill="#502304" transform="translate(264,231)"/>
<path d="M0 0 C0.66 0.99 1.32 1.98 2 3 C-0.97 5.31 -3.94 7.62 -7 10 C-7.66 9.01 -8.32 8.02 -9 7 C-6.03 4.69 -3.06 2.38 0 0 Z " fill="#EA580F" transform="translate(209,212)"/>
<path d="M0 0 C0 3 0 3 -1.75 4.82421875 C-2.4925 5.43910156 -3.235 6.05398438 -4 6.6875 C-4.7425 7.31011719 -5.485 7.93273437 -6.25 8.57421875 C-6.8275 9.04472656 -7.405 9.51523437 -8 10 C-8.66 9.67 -9.32 9.34 -10 9 C-8.89902432 7.87187697 -7.79408444 6.74762189 -6.6875 5.625 C-6.07261719 4.99851562 -5.45773438 4.37203125 -4.82421875 3.7265625 C-3 2 -3 2 0 0 Z " fill="#411C04" transform="translate(231,261)"/>
<path d="M0 0 C0.66 0 1.32 0 2 0 C0.59155282 3.21524305 -1.10344786 5.32183868 -3.625 7.75 C-4.57246094 8.67039062 -4.57246094 8.67039062 -5.5390625 9.609375 C-6.02117187 10.06828125 -6.50328125 10.5271875 -7 11 C-7 6.68381834 -4.86729652 5.07210341 -2 2 C-1.34 2 -0.68 2 0 2 C0 1.34 0 0.68 0 0 Z " fill="#441206" transform="translate(219,271)"/>
<path d="M0 0 C0 0.99 0 1.98 0 3 C-0.66 2.67 -1.32 2.34 -2 2 C-1.34 1.34 -0.68 0.68 0 0 Z M-4 3 C-3.34 3.33 -2.68 3.66 -2 4 C-3.98 6.31 -5.96 8.62 -8 11 C-8 7.09161134 -6.49432124 5.88405893 -4 3 Z " fill="#FA5F0C" transform="translate(206,266)"/>
<path d="M0 0 C0.33 1.32 0.66 2.64 1 4 C-1.64 6.31 -4.28 8.62 -7 11 C-7.66 10.67 -8.32 10.34 -9 10 C-8.15115234 9.29423828 -8.15115234 9.29423828 -7.28515625 8.57421875 C-6.55167969 7.95160156 -5.81820313 7.32898438 -5.0625 6.6875 C-4.33160156 6.07261719 -3.60070312 5.45773438 -2.84765625 4.82421875 C-0.76179634 3.04024481 -0.76179634 3.04024481 0 0 Z " fill="#301909" transform="translate(358,146)"/>
<path d="M0 0 C0.99 0.33 1.98 0.66 3 1 C2.0479279 2.00596297 1.08812654 3.00461563 0.125 4 C-0.40867187 4.556875 -0.94234375 5.11375 -1.4921875 5.6875 C-3 7 -3 7 -5 7 C-5 6.01 -5 5.02 -5 4 C-2.6875 1.75 -2.6875 1.75 0 0 Z " fill="#DB8829" transform="translate(288,207)"/>
<path d="M0 0 C0 3 0 3 -1.53125 4.60546875 C-2.1809375 5.12753906 -2.830625 5.64960938 -3.5 6.1875 C-4.1496875 6.71730469 -4.799375 7.24710938 -5.46875 7.79296875 C-5.9740625 8.19128906 -6.479375 8.58960938 -7 9 C-7.66 8.67 -8.32 8.34 -9 8 C-7.87811441 6.85111717 -6.75238316 5.70598863 -5.625 4.5625 C-4.99851562 3.92441406 -4.37203125 3.28632813 -3.7265625 2.62890625 C-2 1 -2 1 0 0 Z " fill="#371A09" transform="translate(348,157)"/>
<path d="M0 0 C0.66 0.33 1.32 0.66 2 1 C-0.66666667 3.66666667 -3.33333333 6.33333333 -6 9 C-6.66 8.67 -7.32 8.34 -8 8 C-5.36 5.36 -2.72 2.72 0 0 Z " fill="#3D2308" transform="translate(329,173)"/>
<path d="M0 0 C1.32 0 2.64 0 4 0 C4 1.65 4 3.3 4 5 C1.03 4.505 1.03 4.505 -2 4 C-1.34 2.68 -0.68 1.36 0 0 Z " fill="#FAA32E" transform="translate(326,168)"/>
<path d="M0 0 C0.66 0.33 1.32 0.66 2 1 C1.67 1.66 1.34 2.32 1 3 C0.34 3 -0.32 3 -1 3 C-1.33 3.99 -1.66 4.98 -2 6 C-3.65 6.33 -5.3 6.66 -7 7 C-4.66666667 4.66666667 -2.33333333 2.33333333 0 0 Z " fill="#C75A1A" transform="translate(179,149)"/>
<path d="M0 0 C0.66 0 1.32 0 2 0 C2.33 0.99 2.66 1.98 3 3 C-0.75 6 -0.75 6 -3 6 C-2.42655063 3.13275314 -2.1385485 2.1385485 0 0 Z " fill="#A12703" transform="translate(218,201)"/>
<path d="M0 0 C0.99 0.66 1.98 1.32 3 2 C1.75 3.5625 1.75 3.5625 0 5 C-2.1875 4.6875 -2.1875 4.6875 -4 4 C-4 3.34 -4 2.68 -4 2 C-2.68 1.34 -1.36 0.68 0 0 Z " fill="#EB5D11" transform="translate(215,200)"/>
<path d="M0 0 C-2.97 2.475 -2.97 2.475 -6 5 C-6 3.35 -6 1.7 -6 0 C-3 -1 -3 -1 0 0 Z " fill="#D04A17" transform="translate(191,301)"/>
<path d="M0 0 C0.33 0 0.66 0 1 0 C1.36923077 5.41538462 1.36923077 5.41538462 -0.5 8.375 C-0.995 8.91125 -1.49 9.4475 -2 10 C-2.25 3.375 -2.25 3.375 0 0 Z " fill="#DC2909" transform="translate(149,289)"/>
<path d="M0 0 C1.37562854 1.28965176 2.70766393 2.62689293 4 4 C4 4.66 4 5.32 4 6 C1.69 5.34 -0.62 4.68 -3 4 C-2.01 2.68 -1.02 1.36 0 0 Z " fill="#F89627" transform="translate(307,184)"/>
<path d="M0 0 C-1.39332574 3.36720387 -2.9789286 4.9859524 -6 7 C-6.66 6.67 -7.32 6.34 -8 6 C-7.0479279 4.99403703 -6.08812654 3.99538437 -5.125 3 C-4.59132813 2.443125 -4.05765625 1.88625 -3.5078125 1.3125 C-2 0 -2 0 0 0 Z " fill="#3B1E09" transform="translate(339,166)"/>
<path d="M0 0 C0.99 0.33 1.98 0.66 3 1 C0.03 3.475 0.03 3.475 -3 6 C-2.625 3.5625 -2.625 3.5625 -2 1 C-1.34 0.67 -0.68 0.34 0 0 Z " fill="#E2A34A" transform="translate(350,152)"/>
<path d="M0 0 C2.97 0 5.94 0 9 0 C8.67 0.99 8.34 1.98 8 3 C7.01 3.33 6.02 3.66 5 4 C5 3.01 5 2.02 5 1 C3.35 1 1.7 1 0 1 C0 0.67 0 0.34 0 0 Z " fill="#E2A75C" transform="translate(349,147)"/>
</svg>
