<svg preserveAspectRatio="none" width="100%" height="100%" overflow="visible" style="display: block;" viewBox="0 0 38 38" fill="none" xmlns="http://www.w3.org/2000/svg">
<g id="NotePencil" clip-path="url(#clip0_0_101)">
<g id="Vector">
</g>
<path id="Vector_2" d="M18.9362 23.6703H14.2022V18.9362L28.4043 4.73411L33.1383 9.46815L18.9362 23.6703Z" stroke="var(--stroke-0, #DEDEDE)" stroke-width="1.67084" stroke-linecap="round" stroke-linejoin="round"/>
<path id="Vector_3" d="M24.8537 8.28458L29.5878 13.0186" stroke="var(--stroke-0, #DEDEDE)" stroke-width="1.67084" stroke-linecap="round" stroke-linejoin="round"/>
<path id="Vector_4" d="M31.9548 18.9362V30.7713C31.9548 31.0852 31.8301 31.3862 31.6082 31.6082C31.3862 31.8301 31.0852 31.9548 30.7713 31.9548H7.10115C6.78726 31.9548 6.48623 31.8301 6.26428 31.6082C6.04233 31.3862 5.91764 31.0852 5.91764 30.7713V7.10111C5.91764 6.78723 6.04233 6.4862 6.26428 6.26424C6.48623 6.04229 6.78726 5.9176 7.10115 5.9176H18.9362" stroke="var(--stroke-0, #DEDEDE)" stroke-width="1.67084" stroke-linecap="round" stroke-linejoin="round"/>
</g>
<defs>
<clipPath id="clip0_0_101">
<rect width="37.8723" height="37.8723" fill="white"/>
</clipPath>
</defs>
</svg>
