<svg preserveAspectRatio="none" width="100%" height="100%" overflow="visible" style="display: block;" viewBox="0 0 34 34" fill="none" xmlns="http://www.w3.org/2000/svg">
<g id="Scroll" clip-path="url(#clip0_0_22)">
<g id="Vector">
</g>
<path id="Vector_2" d="M26.5625 23.375V8.50002C26.5625 7.65464 26.2266 6.84389 25.6289 6.24612C25.0311 5.64835 24.2203 5.31252 23.375 5.31252H5.31246" stroke="var(--stroke-0, #DEDEDE)" stroke-width="2.3356" stroke-linecap="round" stroke-linejoin="round"/>
<path id="Vector_3" d="M13.8125 13.8125H22.3125" stroke="var(--stroke-0, #DEDEDE)" stroke-width="2.3356" stroke-linecap="round" stroke-linejoin="round"/>
<path id="Vector_4" d="M13.8125 18.0625H22.3125" stroke="var(--stroke-0, #DEDEDE)" stroke-width="2.3356" stroke-linecap="round" stroke-linejoin="round"/>
<path id="Vector_5" d="M3.18742 10.625C3.18742 10.625 2.12492 9.82815 2.12492 8.50002C2.12492 7.65464 2.46074 6.84389 3.05851 6.24612C3.65629 5.64835 4.46704 5.31252 5.31242 5.31252C6.15779 5.31252 6.96855 5.64835 7.56632 6.24612C8.16409 6.84389 8.49992 7.65464 8.49992 8.50002V25.5C8.49992 26.3454 8.83574 27.1562 9.43351 27.7539C10.0313 28.3517 10.842 28.6875 11.6874 28.6875M11.6874 28.6875C12.5328 28.6875 13.3435 28.3517 13.9413 27.7539C14.5391 27.1562 14.8749 26.3454 14.8749 25.5C14.8749 24.1719 13.8124 23.375 13.8124 23.375H28.6874C28.6874 23.375 29.7499 24.1719 29.7499 25.5C29.7499 26.3454 29.4141 27.1562 28.8163 27.7539C28.2185 28.3517 27.4078 28.6875 26.5624 28.6875H11.6874Z" stroke="var(--stroke-0, #DEDEDE)" stroke-width="2.3356" stroke-linecap="round" stroke-linejoin="round"/>
</g>
<defs>
<clipPath id="clip0_0_22">
<rect width="34" height="34" fill="white"/>
</clipPath>
</defs>
</svg>
